<?xml version="1.0" encoding="utf-8"?>
<!-- Generator: Adobe Illustrator 16.0.0, SVG Export Plug-In . SVG Version: 6.00 Build 0)  -->
<!DOCTYPE svg PUBLIC "-//W3C//DTD SVG 1.1//EN" "http://www.w3.org/Graphics/SVG/1.1/DTD/svg11.dtd">
<svg version="1.1" id="Слой_1" xmlns="http://www.w3.org/2000/svg" xmlns:xlink="http://www.w3.org/1999/xlink" x="0px" y="0px"
	 width="32px" height="32px" viewBox="0 0 32 32" enable-background="new 0 0 32 32" xml:space="preserve">
<path fill="#B8B8B8" d="M25.355,14.5H6.738l7.468-7.439c0.284-0.284,0.44-0.661,0.44-1.062c0-0.4-0.157-0.777-0.44-1.059
	c-0.567-0.567-1.556-0.567-2.121,0l-9.9,9.899C1.904,15.119,1.75,15.497,1.75,15.9c0,0.403,0.155,0.78,0.436,1.059l9.9,9.9
	c0.284,0.283,0.661,0.439,1.061,0.439s0.777-0.156,1.06-0.439c0.284-0.283,0.44-0.66,0.44-1.061s-0.156-0.777-0.445-1.065L6.76,17.5
	h18.596c0.827,0,1.5-0.673,1.5-1.5S26.183,14.5,25.355,14.5z"/>
</svg>
