<?xml version="1.0" encoding="utf-8"?>
<!-- Generator: Adobe Illustrator 16.0.0, SVG Export Plug-In . SVG Version: 6.00 Build 0)  -->
<!DOCTYPE svg PUBLIC "-//W3C//DTD SVG 1.1//EN" "http://www.w3.org/Graphics/SVG/1.1/DTD/svg11.dtd">
<svg version="1.1" id="Calque_1" xmlns="http://www.w3.org/2000/svg" xmlns:xlink="http://www.w3.org/1999/xlink" x="0px" y="0px"
	 width="592px" height="422px" viewBox="0 69.5 592 422" enable-background="new 0 69.5 592 422" xml:space="preserve">
<path fill="#FFFFFF" d="M0,0v560h592V0H0z M397.332,182.409c16.396,6.288,31.435,15.366,44.694,26.982l-35.384,40.386
	c-9.482-8.307-20.44-14.567-32.203-18.527c-1.924-11.512-5.08-22.75-9.451-33.611c-3.504-8.705-7.713-16.994-12.6-24.818
	C367.83,173.666,382.912,176.879,397.332,182.409z M117.965,385.369L91,385.357V88.244l26.964-0.014
	c0.835,0,68.898-0.04,98.015-0.04c20.05,0,39.547,3.933,57.885,11.69c17.7,7.485,33.606,18.197,47.245,31.836
	c13.64,13.639,24.358,29.529,31.846,47.229c7.756,18.338,11.693,37.803,11.693,57.853c0,20.05-3.933,39.513-11.688,57.853
	c-7.485,17.699-18.196,33.589-31.836,47.229c-13.64,13.639-29.529,24.351-47.228,31.836c-18.338,7.756-37.868,11.689-57.917,11.689
	C181.947,385.404,118.751,385.371,117.965,385.369z M481.05,379.057c-7.486,17.699-18.198,33.588-31.837,47.228
	c-13.639,13.641-29.529,24.352-47.229,31.838c-18.338,7.756-37.803,11.688-57.854,11.688c-20.05,0-39.514-3.934-57.854-11.688
	c-17.698-7.486-33.589-18.197-47.227-31.838c-3.726-3.726-7.231-7.619-10.515-11.672c19.886-0.064,39.191-4.193,57.387-12.283
	c1.749-0.777,3.48-1.588,5.194-2.435c15.147,10.238,33.395,16.177,53.014,16.177c41.526,0,76.907-27.07,89.752-64.07H379v-48
	h112.705l0.02-0.118c0.675,5.75,1.017,11.559,1.016,17.378C492.739,341.309,488.807,360.717,481.05,379.057z"/>
</svg>
